<svg width="512" height="512" viewBox="0 0 512 512" fill="none" xmlns="http://www.w3.org/2000/svg">
<path d="M25 47H185V151H129V207H25V47Z" fill="#FFC953"/>
<path d="M239 64H287C340.043 64 390.914 85.0714 428.421 122.579C465.929 160.086 487 210.957 487 264C487 317.043 465.929 367.914 428.421 405.421C390.914 442.929 340.043 464 287 464H47V256H151V360H287C312.461 360 336.879 349.886 354.882 331.882C372.886 313.879 383 289.461 383 264C383 238.539 372.886 214.121 354.882 196.118C336.879 178.114 312.461 168 287 168H239V64Z" fill="#6C5CFF"/>
</svg>
